# xmcd
#
# Track frame offsets:
#	150
#	23235
#	43661
#	63755
#	78326
#
# Disc length: 1213 seconds
#
# Revision: 1
# Processed by: cddbd v1.5.1PL0 Copyright (c) Steve Scherf et al.
# Submitted via: CDex 1.50Beta5
#
DISCID=3304bb05
DTITLE=Various Artist - Happy Christmas
DYEAR=2003
DGENRE=Pop
TTITLE0=Cyndi Lauper/Early Christmas Morning
TTITLE1=Jajajah All Stars/Christmas Eve
TTITLE2=松田聖子/恋人がサンタクロース
TTITLE3=Cl将アmentine/When You Wish Upon A Star
TTITLE4=Human Nature/Last Christmas
EXTD=
EXTT0=
EXTT1=
EXTT2=
EXTT3=
EXTT4=
PLAYORDER=
